<?xml version="1.0" encoding="utf-8"?>
<!-- Generator: Adobe Illustrator 26.0.2, SVG Export Plug-In . SVG Version: 6.00 Build 0)  -->
<svg version="1.1" id="Camada_1" xmlns="http://www.w3.org/2000/svg" xmlns:xlink="http://www.w3.org/1999/xlink" x="0px" y="0px"
	 viewBox="0 0 700 700" style="enable-background:new 0 0 700 700;" xml:space="preserve">
<style type="text/css">
	.st0{fill:#FF0000;}
</style>
<path class="st0" d="M688.1,436.8c-10.7-27.7-25.9-53.6-25.9-53.6l21.4-3.6c0,0-6.3-32.1-85.7-81.2v-8.9c0,0,17,4.5,21.4-6.3
	c8.9,1.8,23.2,6.3,18.8-6.3c-4.5-12.5-6.3-17-6.3-17l-37.5,4.5l-4.5,8.9h-6.3c0,0,23.2-38.4-95.5-25.9
	c-27.7,4.5-29.5,12.5-127.7,15.2c-17,6.3-25.9,18.8-27.7,49.1c0.9,6.3,11.6,22.3,18.8,42v-0.9h107.1v-18.8c0,0-0.9-4.5,5.4-4.5h7.1
	h0.9c1.8-0.9,17-5.4,39.3-8L481,369.8h32.1l-8,27.7c-9.8-1.8-20.5-3.6-29.5-7.1h-0.9l-10.7-0.9c0,0-5.4,0-6.3-5.4v-17.9l-103.6,0
	c4.5,19.6,2.7,41.1-16.1,57.1c-16.1,3.6-51.8,8-84.8,8.9c-8.9,0-17.9-4.5-22.3-12.5c-8.9-14.3-21.4-35.7-31.2-85.7
	c0-10.7-23.2-15.2,23.2-98.2c1.8-1.8,18.8-42.8,18.8-42.8l25.9-1.8l12.5,4.5c0,0,10.7,0,4.5-10.7l-10.7-4.5l-15.2-15.2h-15.2
	l-8.9-10.7l-6.3-1.8v-21.4l12.5-33.9c0,0,12.5,12.5,10.7-10.7c-1.8-23.2-15.2-49.1-18.8-27.7c-4.5,21.4,4.5,32.1-8.9,70.5
	c-1.8,12.5,0,23.2,0,23.2c0,0-11.6-6.2-13.4-14.3c-6.3-1.8-40.2-4.5-44.6,1.8c-4.5,6.3-15.2,33.9,4.5,57.1c21.4,1.8,21.4,0,21.4,0
	l4.5,17l-6.3-6.3c0,0-4.5-4.5-10.7,1.8c-6.3,6.3-78.6,76.8-89.3,136.6c-17,6.3-49.1,29.5-55.3,44.6c21.4,4.5,44.6,8.9,44.6,8.9
	S2.5,404.6,7,492.1c4.5,38.4,36.6,75,75,75s75-23.2,81.2-57.1s1.8-32.1-1.8-59.8c10.7,21.4,32.1,49.1,53.6,49.1S307,493,307,493
	s179.4-17,208.9-1.8c1.8,12.5,17,68.7,78.6,72.3c75,4.5,87.5-61.6,87.5-61.6s12.5-40.2-18.8-76.8l6.3-4.5l21.4,29.5
	C688.1,450.2,698.8,464.4,688.1,436.8L688.1,436.8z M123.9,459.1c25,42-20.5,87.5-62.5,62.5c-6.3-3.6-11.6-8.9-15.2-15.2
	c-25-42,20.5-87.5,62.5-62.5C115,448.4,120.4,452.8,123.9,459.1z M511.4,398.4l29.5-48.2h-29.5l5.4-29.5c11.6-0.9,25-0.9,40.2,0
	c0.9,0,0.9,0.9,1.8,0.9c1.8,2.7,2.7,8,2.7,11.6c0,1.8,1.8,3.6,3.6,3.6l32.1,1.8c0.9,0,2.7,0.9,2.7,1.8c0,0.9,0,0.9,0.9,1.8
	c0,1.8-1.8,3.6-3.6,3.6c-6.3,0-25-0.9-32.1-0.9c-1.8,0-3.6,1.8-3.6,3.6l-0.9,27.7c0,1.8,1.8,3.6,3.6,3.6l33,1.8
	c1.8,0,2.7,0.9,3.6,2.7c0,1.8-1.8,3.6-3.6,3.6c-6.3,0-25.9-0.9-33.9-0.9c-1.8,0-3.6,0.9-3.6,2.7c0,2.7-0.9,7.1-2.7,9.8
	c-0.9,0.9-1.8,1.8-2.7,1.8C548.9,400.2,531,401.1,511.4,398.4L511.4,398.4z M609.6,519.8c-6.3,1.8-13.4,1.8-19.6,0.9
	c-17-3.6-29.5-15.2-34.8-30.4l39.3-13.4c2.7-0.9,6.3-2.7,8.9-4.5l33.9-23.2C653.3,473.4,642.6,510.9,609.6,519.8L609.6,519.8z"/>
</svg>
