<?xml version="1.0" encoding="utf-8"?>
<!-- Generator: Adobe Illustrator 26.0.2, SVG Export Plug-In . SVG Version: 6.00 Build 0)  -->
<svg version="1.1" id="Camada_1" xmlns="http://www.w3.org/2000/svg" xmlns:xlink="http://www.w3.org/1999/xlink" x="0px" y="0px"
	 viewBox="0 0 700 700" style="enable-background:new 0 0 700 700;" xml:space="preserve">
<style type="text/css">
	.st0{fill:#FF0000;}
</style>
<g>
	<path class="st0" d="M371.9,389.9L371.9,389.9c-7.1-2-14.6-3-22.3-3c-46.5,0-84.3,37.8-84.3,84.3c0,46.5,37.8,84.3,84.3,84.3
		s84.3-37.8,84.3-84.3c0-7.5-1-14.9-2.9-21.8l76.8-136.2L371.9,389.9z M349.6,521.7c-27.9,0-50.6-22.7-50.6-50.6
		c0-27.9,22.7-50.6,50.6-50.6c27.9,0,50.6,22.7,50.6,50.6C400.2,499,377.5,521.7,349.6,521.7z"/>
	<path class="st0" d="M666.9,337.1h0.2c-17.4-41-42.2-77.9-73.8-109.5c-31.6-31.6-68.5-56.5-109.5-73.8
		c-42.5-18-87.6-27.1-134.1-27.1s-91.6,9.1-134.1,27.1c-41,17.4-77.9,42.2-109.5,73.8c-31.6,31.6-56.5,68.5-73.8,109.5
		C14.1,379.6,5,424.7,5,471.2c0,5.2,0.2,10.6,0.4,15.8h80.8v-31.6H55.4c1.5-28,6.9-55.4,16.1-81.7l28.5,11.7l12.1-29.2l-28.5-11.7
		c12.1-25.5,27.9-49,46.8-70.1l21.8,21.8l22.3-22.3l-21.8-21.8c20.8-18.7,44-34.3,69.1-46.4l11.8,28.5l29.1-12.1L251,193.6
		c26.6-9.5,54.3-15,82.7-16.4v30.8h31.6v-30.8c28.4,1.5,56.1,7,82.7,16.4l-11.8,28.5l29.1,12.1l11.8-28.5
		c25.1,12.1,48.3,27.6,69.1,46.4l-21.8,21.8l22.3,22.3l21.8-21.8c18.9,21.1,34.7,44.6,46.8,70.1l-28.5,11.7l12.1,29.2l28.5-11.7
		c9.2,26.3,14.6,53.7,16.1,81.7h-30.8V487h80.8c0.2-5.2,0.4-10.5,0.4-15.8C694,424.7,684.9,379.6,666.9,337.1z"/>
</g>
</svg>
