<?xml version="1.0" encoding="utf-8"?>
<!-- Generator: Adobe Illustrator 26.0.2, SVG Export Plug-In . SVG Version: 6.00 Build 0)  -->
<svg version="1.1" id="Camada_1" xmlns="http://www.w3.org/2000/svg" xmlns:xlink="http://www.w3.org/1999/xlink" x="0px" y="0px"
	 viewBox="0 0 700 700" style="enable-background:new 0 0 700 700;" xml:space="preserve">
<style type="text/css">
	.st0{fill:#FF0000;}
</style>
<path class="st0" d="M694.2,336.8c-2.9-86.2-38.8-168.2-100.6-230l-4.3-4.3c-66.1-61.8-149.5-96.3-240-96.3
	c-87.7,0-169.6,31.6-232.8,90.5l-11.5,10.1l-10.1,10.1c-54.6,61.8-86.2,138-90.5,219.9v28.7c2.9,84.8,37.4,163.9,96.3,225.7l4.3,4.3
	c64.7,64.7,152.4,100.6,244.3,100.6c87.7,0,169.6-33.1,232.8-92l11.5-8.6l10.1-10.1c27.3-28.7,48.9-61.8,64.7-99.2
	c15.8-37.4,24.4-77.6,27.3-119.3v-14.4L694.2,336.8z M592.2,380c0,4.3-1.4,10.1-2.9,14.4c0,2.9-1.4,5.8-1.4,8.6
	c-1.4,5.8-2.9,10.1-4.3,14.4c0,2.9-1.4,4.3-1.4,7.2c-2.9,7.2-4.3,14.4-7.2,21.6c-2.9,7.2-7.2,14.4-10.1,21.6
	c-1.4,2.9-2.9,4.3-4.3,7.2s-4.3,5.8-5.8,8.6h-2.9c-1.4,0-2.9-1.4-4.3-1.4c-2.9,0-4.3-1.4-7.2-1.4H539c-8.6,0-17.2,1.4-24.4,4.3
	c-1.4,0-2.9,1.4-4.3,1.4c-1.4,0-1.4,1.4-2.9,1.4l-25.9-25.9c0,0,0-1.4,1.4-1.4l2.9-2.9c2.9-2.9,4.3-5.8,7.2-8.6
	c1.4-1.4,1.4-2.9,2.9-4.3c1.4-2.9,4.3-5.8,5.8-10.1c1.4-1.4,1.4-2.9,2.9-4.3c4.3-8.6,8.6-18.7,11.5-28.7c0-1.4,1.4-2.9,1.4-4.3
	c1.4-2.9,1.4-7.2,2.9-10.1c0-1.4,0-2.9,1.4-5.8c0-4.3,1.4-7.2,1.4-11.5v-4.3v-1.4h71.9v5.8C592.2,374.2,592.2,377.1,592.2,380
	L592.2,380z M478.6,558.2c-2.9,1.4-4.3,2.9-7.2,4.3c-2.9,1.4-5.8,2.9-8.6,4.3c-2.9,1.4-4.3,2.9-7.2,4.3c-2.9,1.4-5.8,2.9-10.1,4.3
	c-2.9,1.4-4.3,1.4-7.2,2.9c-2.9,1.4-7.2,2.9-10.1,2.9c-2.9,1.4-4.3,1.4-7.2,2.9c-2.9,1.4-7.2,1.4-10.1,2.9c-2.9,0-4.3,1.4-7.2,1.4
	c-4.3,1.4-7.2,1.4-11.5,1.4c-2.9,0-4.3,1.4-7.2,1.4c-4.3,0-8.6,1.4-12.9,1.4h-5.8h-4.3v-71.9h1.4h5.8c2.9,0,7.2-1.4,10.1-1.4
	c1.4,0,4.3-1.4,5.8-1.4c2.9-1.4,5.8-1.4,10.1-2.9c1.4,0,4.3-1.4,5.8-1.4c2.9-1.4,5.8-1.4,8.6-2.9c1.4-1.4,4.3-1.4,5.8-2.9
	c2.9-1.4,5.8-2.9,8.6-4.3c1.4-1.4,4.3-1.4,5.8-2.9c2.9-1.4,5.8-2.9,8.6-5.8c1.4-1.4,2.9-2.9,5.8-2.9c2.9-1.4,5.8-4.3,8.6-5.8
	c1.4-1.4,2.9-2.9,4.3-2.9c0,0,1.4,0,1.4-1.4l25.9,25.9c-1.4,2.9-2.9,4.3-2.9,7.2c-1.4,2.9-1.4,5.8-2.9,8.6v2.9
	c0,2.9-1.4,7.2-1.4,10.1v8.6v2.9c0,1.4,1.4,4.3,1.4,5.8v1.4C480.1,556.7,480.1,558.2,478.6,558.2L478.6,558.2z M156.7,499.2
	c-2.9-4.3-5.8-8.6-8.6-11.5c-1.4-2.9-2.9-5.8-4.3-8.6c-2.9-4.3-4.3-7.2-7.2-11.5c-1.4-2.9-2.9-5.8-4.3-8.6
	c-1.4-4.3-4.3-7.2-5.8-11.5c-1.4-2.9-2.9-5.8-4.3-10.1c-1.4-4.3-2.9-8.6-4.3-11.5c-1.4-2.9-1.4-7.2-2.9-10.1
	c-1.4-4.3-2.9-8.6-2.9-12.9c-1.4-2.9-1.4-7.2-1.4-10.1c-1.4-4.3-1.4-8.6-1.4-12.9c0-2.9-1.4-7.2-1.4-10.1v-5.8h71.9v2.9
	c0,1.4,0,4.3,1.4,5.8c0,4.3,1.4,7.2,1.4,11.5c0,1.4,1.4,4.3,1.4,5.8c1.4,4.3,2.9,8.6,4.3,12.9c0,1.4,1.4,2.9,1.4,4.3
	c1.4,5.8,4.3,10.1,7.2,15.8v1.4c1.4,1.4,1.4,4.3,2.9,5.8c1.4,2.9,2.9,4.3,4.3,7.2c0,0,0,1.4,1.4,1.4c1.4,1.4,2.9,2.9,2.9,5.8
	c1.4,2.9,2.9,4.3,4.3,7.2c1.4,2.9,4.3,5.8,5.8,7.2c0,0,0,1.4,1.4,1.4l-50.3,50.3c-1.4-2.9-4.3-4.3-5.8-7.2
	C159.6,505,158.1,502.1,156.7,499.2L156.7,499.2z M194.1,162.9c2.9-2.9,5.8-4.3,8.6-7.2c1.4-1.4,2.9-2.9,5.8-4.3
	c2.9-2.9,5.8-4.3,10.1-7.2c1.4-1.4,2.9-1.4,4.3-2.9c4.3-2.9,8.6-5.8,12.9-7.2c0,0,1.4,0,1.4-1.4c5.8-2.9,10.1-4.3,15.8-7.2
	c1.4-1.4,2.9-1.4,5.8-1.4c4.3-1.4,7.2-2.9,11.5-4.3c1.4,0,4.3-1.4,5.8-1.4c2.9-1.4,7.2-2.9,11.5-2.9c1.4,0,4.3-1.4,5.8-1.4h2.9
	c0,1.4,1.4,1.4,1.4,2.9c0,1.4,1.4,2.9,1.4,2.9c1.4,1.4,2.9,4.3,4.3,5.8c0,1.4,1.4,1.4,1.4,2.9c1.4,2.9,4.3,4.3,5.8,7.2
	c1.4,1.4,1.4,1.4,2.9,1.4c1.4,1.4,2.9,2.9,5.8,4.3c1.4,0,1.4,1.4,2.9,1.4c1.4,1.4,2.9,1.4,5.8,2.9c1.4,0,2.9,1.4,2.9,1.4
	c1.4,0,2.9,1.4,4.3,1.4l0,30.2h-1.4h-5.8c-4.3,0-7.2,1.4-10.1,1.4c-1.4,0-4.3,1.4-5.8,1.4c-2.9,1.4-5.8,1.4-10.1,2.9
	c-1.4,0-4.3,1.4-5.8,1.4c-2.9,1.4-5.8,1.4-8.6,2.9c-1.4,1.4-4.3,1.4-5.8,2.9c-2.9,1.4-5.8,2.9-8.6,4.3c-1.4,1.4-4.3,1.4-5.8,2.9
	c-2.9,1.4-5.8,2.9-8.6,5.8c-1.4,1.4-2.9,2.9-5.8,2.9c-2.9,1.4-5.8,4.3-8.6,5.8c-1.4,1.4-2.9,2.9-4.3,2.9c0,0-1.4,0-1.4,1.4
	l-50.3-50.3l1.4-1.4C191.2,165.8,192.6,164.4,194.1,162.9L194.1,162.9z M544.8,204.6c2.9,4.3,5.8,8.6,8.6,12.9
	c1.4,2.9,2.9,4.3,4.3,7.2c2.9,4.3,4.3,7.2,7.2,11.5c1.4,2.9,2.9,5.8,4.3,8.6c1.4,4.3,4.3,8.6,5.8,11.5c1.4,2.9,2.9,5.8,2.9,8.6
	c1.4,4.3,2.9,8.6,4.3,11.5c1.4,2.9,1.4,5.8,2.9,10.1c1.4,4.3,1.4,8.6,2.9,12.9c0,2.9,1.4,7.2,1.4,10.1c0,4.3,1.4,8.6,1.4,12.9
	c0,2.9,1.4,7.2,1.4,10.1v4.3h-71.9v-1.4v-5.8c0-4.3-1.4-7.2-1.4-11.5c0-1.4-1.4-2.9-1.4-4.3c-1.4-4.3-1.4-7.2-2.9-11.5
	c0-1.4-1.4-4.3-1.4-5.8c-1.4-2.9-2.9-5.8-2.9-10.1c-1.4-2.9-1.4-4.3-2.9-7.2c0-1.4-1.4-2.9-1.4-4.3c-1.4-1.4-1.4-4.3-2.9-5.8
	c-1.4-2.9-2.9-5.8-4.3-7.2c-1.4-1.4-2.9-2.9-2.9-5.8c-2.9-5.8-7.2-10.1-11.5-15.8l-1.4-1.4l50.3-50.3c2.9,2.9,5.8,5.8,8.6,10.1
	C541.9,200.3,543.3,203.2,544.8,204.6L544.8,204.6z M488.7,384.3c0,1.4-1.4,2.9-1.4,4.3c-2.9,11.5-8.6,23-14.4,34.5
	c-1.4,1.4-1.4,2.9-2.9,4.3c-2.9,5.8-7.2,10.1-11.5,15.8L398.2,380c2.9-4.3,4.3-10.1,5.8-14.4h87.7
	C491.6,371.3,490.1,378.5,488.7,384.3L488.7,384.3z M425.5,471.9c-2.9,1.4-5.8,2.9-7.2,4.3c-1.4,1.4-2.9,1.4-4.3,2.9
	c-2.9,1.4-4.3,2.9-7.2,2.9c-1.4,0-2.9,1.4-4.3,1.4c-2.9,1.4-4.3,1.4-7.2,2.9c-1.4,0-2.9,1.4-5.8,1.4c-2.9,1.4-5.8,1.4-7.2,1.4
	c-1.4,0-2.9,1.4-5.8,1.4c-2.9,0-5.8,1.4-8.6,1.4h-2.9v-87.7c1.4,0,2.9,0,2.9-1.4c1.4,0,1.4,0,2.9-1.4c1.4,0,2.9-1.4,4.3-1.4
	s2.9-1.4,4.3-1.4l61.8,61.8c-2.9,2.9-7.2,5.8-10.1,8.6C428.3,470.5,426.9,471.9,425.5,471.9L425.5,471.9z M215.6,404.4
	c-1.4-2.9-2.9-5.8-2.9-10.1c0-1.4-1.4-2.9-1.4-2.9c-1.4-2.9-1.4-7.2-2.9-10.1v-2.9c-1.4-4.3-1.4-8.6-1.4-12.9h87.7
	c0,0,0,1.4,1.4,1.4c0,2.9,1.4,4.3,2.9,7.2c0,1.4,1.4,2.9,1.4,4.3s1.4,1.4,1.4,2.9l-61.8,61.8l-1.4-1.4c-1.4-2.9-4.3-4.3-5.8-7.2
	c-1.4-1.4-1.4-2.9-2.9-4.3c-1.4-2.9-2.9-4.3-4.3-7.2c-1.4-1.4-1.4-2.9-2.9-4.3c-1.4-2.9-2.9-5.8-4.3-8.6
	C217,407.3,217,405.8,215.6,404.4L215.6,404.4z M268.8,231.9c1.4-1.4,2.9-1.4,2.9-2.9c2.9-1.4,5.8-2.9,7.2-4.3
	c1.4-1.4,2.9-1.4,4.3-2.9c2.9-1.4,4.3-2.9,7.2-2.9c1.4,0,2.9-1.4,4.3-1.4c2.9-1.4,4.3-1.4,7.2-2.9c1.4,0,2.9-1.4,5.8-1.4
	c2.9-1.4,5.8-1.4,8.6-1.4c1.4,0,2.9-1.4,4.3-1.4c2.9,0,5.8-1.4,8.6-1.4h2.9v87.7c-5.8,1.4-10.1,2.9-14.4,5.8l-61.8-61.8
	C261.6,237.7,265.9,234.8,268.8,231.9L268.8,231.9z M412.5,115.5c2.9,1.4,7.2,1.4,10.1,2.9c2.9,1.4,4.3,1.4,7.2,2.9
	c2.9,1.4,7.2,2.9,10.1,4.3c2.9,1.4,4.3,1.4,7.2,2.9c2.9,1.4,5.8,2.9,10.1,4.3c2.9,1.4,4.3,2.9,7.2,2.9c2.9,1.4,5.8,2.9,8.6,5.8
	c1.4,1.4,4.3,2.9,5.8,4.3c2.9,1.4,5.8,4.3,8.6,5.8c1.4,1.4,4.3,2.9,5.8,4.3c2.9,2.9,5.8,4.3,10.1,7.2l7.2,7.2L460,220.4l-1.4-1.4
	c0,0-1.4,0-1.4-1.4c-2.9-2.9-7.2-5.8-10.1-7.2c-1.4-1.4-2.9-1.4-4.3-2.9c-1.4-1.4-2.9-1.4-4.3-2.9c-1.4-1.4-2.9-1.4-4.3-2.9
	c-1.4-1.4-4.3-2.9-5.8-2.9c-1.4,0-2.9-1.4-4.3-1.4c-1.4,0-2.9-1.4-4.3-1.4c-2.9-1.4-5.8-2.9-10.1-4.3c-2.9-1.4-4.3-1.4-7.2-2.9
	c-4.3-1.4-7.2-2.9-11.5-2.9c-2.9,0-4.3-1.4-7.2-1.4c-4.3-1.4-8.6-1.4-11.5-1.4c-1.4,0-4.3,0-5.8-1.4h-4.3V150c1.4,0,2.9-1.4,4.3-1.4
	c1.4,0,2.9-1.4,2.9-1.4c1.4-1.4,4.3-1.4,5.8-2.9c1.4,0,1.4-1.4,2.9-1.4c1.4-1.4,4.3-2.9,5.8-4.3c1.4,0,1.4-1.4,2.9-1.4
	c2.9-2.9,4.3-4.3,5.8-7.2c0,0,0-1.4,1.4-1.4c1.4-2.9,2.9-4.3,4.3-7.2c0-1.4,1.4-1.4,1.4-2.9c0-1.4,1.4-2.9,1.4-4.3h2.9
	C408.2,114.1,411.1,115.5,412.5,115.5L412.5,115.5z M484.4,302.3c0,1.4,1.4,2.9,1.4,4.3c1.4,2.9,1.4,5.8,2.9,8.6
	c0,1.4,1.4,4.3,1.4,5.8c0,2.9,1.4,5.8,1.4,10.1v4.3v1.4h-87.7c0-2.9-1.4-5.8-2.9-7.2v-1.4c-1.4-2.9-1.4-4.3-2.9-7.2l61.8-61.8
	c0,1.4,1.4,1.4,1.4,2.9c1.4,2.9,4.3,5.8,5.8,7.2c1.4,2.9,2.9,4.3,4.3,7.2c1.4,2.9,2.9,5.8,4.3,8.6c0,1.4,1.4,1.4,1.4,2.9
	C481.5,293.7,483,298,484.4,302.3L484.4,302.3z M327.7,493.5c-2.9,0-5.8-1.4-8.6-1.4c-1.4,0-4.3-1.4-5.8-1.4
	c-2.9-1.4-5.8-1.4-8.6-2.9c-1.4,0-4.3-1.4-5.8-2.9c-2.9-1.4-5.8-2.9-8.6-2.9c-1.4-1.4-4.3-1.4-5.8-2.9c-2.9-1.4-4.3-2.9-7.2-4.3
	c-1.4-1.4-4.3-2.9-5.8-2.9s-1.4-1.4-2.9-1.4c-4.3-2.9-7.2-5.8-10.1-8.6l61.8-61.8c1.4,0,1.4,1.4,2.9,1.4c0,0,1.4,0,1.4,1.4
	c2.9,1.4,7.2,2.9,10.1,4.3v87.7h-1.4C332,493.5,330.6,493.5,327.7,493.5L327.7,493.5z M369.4,208.9c2.9,0,7.2,1.4,10.1,1.4
	c1.4,0,4.3,1.4,5.8,1.4c2.9,1.4,5.8,1.4,8.6,2.9c2.9,0,4.3,1.4,7.2,2.9c2.9,1.4,4.3,1.4,7.2,2.9c2.9,1.4,5.8,2.9,7.2,2.9
	c1.4,1.4,2.9,1.4,4.3,2.9c2.9,1.4,4.3,2.9,7.2,4.3c1.4,1.4,2.9,1.4,4.3,2.9c2.9,1.4,5.8,4.3,8.6,5.8l1.4,1.4L378,302.3
	c0,0-1.4,0-1.4-1.4c-1.4,0-1.4-1.4-2.9-1.4c-1.4-1.4-4.3-1.4-7.2-2.9c-1.4,0-1.4,0-2.9-1.4h-1.4v-87.7h1.4
	C366.5,208.9,368,208.9,369.4,208.9L369.4,208.9z M238.6,483.5l1.4,1.4c4.3,2.9,8.6,5.8,12.9,8.6c1.4,1.4,2.9,1.4,4.3,2.9
	c1.4,1.4,2.9,1.4,4.3,2.9c1.4,0,2.9,1.4,2.9,1.4c2.9,1.4,5.8,2.9,8.6,4.3c1.4,0,1.4,1.4,2.9,1.4c1.4,0,2.9,1.4,2.9,1.4
	c4.3,1.4,7.2,2.9,11.5,4.3c1.4,1.4,4.3,1.4,5.8,2.9c4.3,1.4,7.2,2.9,11.5,2.9c2.9,0,4.3,1.4,7.2,1.4c4.3,1.4,7.2,1.4,11.5,1.4
	c1.4,0,4.3,0,5.8,1.4h4.3v71.9c-54.6-2.9-106.4-24.4-148-61.8L238.6,483.5z M531.8,148.5c-2.9-2.9-5.8-5.8-8.6-7.2
	c-1.4-1.4-2.9-2.9-4.3-4.3c-2.9-2.9-7.2-5.8-10.1-8.6c-1.4-1.4-4.3-2.9-5.8-4.3c-2.9-2.9-7.2-4.3-10.1-7.2c-2.9-1.4-4.3-2.9-7.2-4.3
	c-2.9-1.4-7.2-4.3-10.1-5.8c-2.9-1.4-4.3-2.9-7.2-2.9c-2.9-1.4-7.2-2.9-10.1-4.3c-2.9-1.4-5.8-1.4-7.2-2.9
	c-2.9-1.4-7.2-2.9-10.1-4.3c-5.8,0-8.6-1.4-11.5-1.4c-2.9-1.4-7.2-1.4-10.1-2.9c-2.9-1.4-5.8-1.4-8.6-1.4c-1.4,0-2.9-1.4-4.3-1.4
	v-1.4c0-1.4,0-2.9-1.4-4.3c0-1.4-1.4-4.3-1.4-5.8c0-1.4-1.4-2.9-1.4-4.3c-1.4-1.4-1.4-2.9-2.9-4.3c-1.4-1.4-1.4-2.9-2.9-4.3
	c-1.4-1.4-2.9-2.9-2.9-4.3l-4.3-4.3c-1.4-1.4-2.9-2.9-4.3-2.9c-1.4-1.4-2.9-1.4-4.3-2.9c-1.4-1.4-2.9-1.4-5.8-2.9
	c-1.4,0-2.9-1.4-4.3-1.4c-1.4-1.4-4.3-1.4-7.2-1.4l0-5.8C437,37.9,507.4,66.6,562,116.9L531.8,148.5z M166.7,553.9
	c47.4,41.7,104.9,66.1,168.2,70.4v43.1c-74.7-2.9-143.7-31.6-198.4-81.9L166.7,553.9z M622.4,336.8v-7.2c0-4.3,0-7.2-1.4-11.5
	c0-4.3-1.4-10.1-1.4-14.4c0-4.3-1.4-7.2-2.9-11.5c-1.4-4.3-2.9-8.6-2.9-14.4c-1.4-4.3-1.4-7.2-2.9-11.5c-1.4-4.3-2.9-8.6-4.3-12.9
	c-1.4-2.9-2.9-7.2-4.3-10.1c-1.4-4.3-4.3-8.6-5.8-12.9c-1.4-2.9-2.9-7.2-4.3-10.1c-2.9-4.3-5.8-8.6-7.2-12.9
	c-1.4-2.9-4.3-5.8-5.8-8.6c-2.9-4.3-7.2-8.6-10.1-12.9c-1.4-2.9-2.9-4.3-5.8-7.2c-2.9-2.9-5.8-5.8-8.6-8.6l30.2-30.2
	c47.4,53.2,76.2,122.2,80.5,196.9L622.4,336.8z M334.9,35v1.4c-2.9,0-4.3,1.4-7.2,1.4c-1.4,0-2.9,1.4-4.3,1.4
	c-1.4,1.4-2.9,1.4-5.8,2.9c-1.4,1.4-2.9,1.4-4.3,2.9c-1.4,1.4-2.9,2.9-4.3,2.9c-1.4,1.4-2.9,2.9-2.9,4.3c-1.4,1.4-2.9,2.9-2.9,4.3
	c-1.4,1.4-1.4,2.9-2.9,4.3c-1.4,1.4-1.4,2.9-2.9,4.3c0,1.4-1.4,2.9-1.4,4.3c-1.4,1.4-1.4,4.3-1.4,5.8c0,1.4-1.4,2.9-1.4,4.3V81
	c-1.4,0-4.3,1.4-5.8,1.4c-2.9,0-4.3,1.4-7.2,1.4c-4.3,1.4-8.6,2.9-12.9,2.9c-1.4,4.3-4.3,5.7-7.2,5.7c-4.3,1.4-8.6,2.9-12.9,4.3
	c-1.4,0-2.9,1.4-4.3,1.4c-5.8,2.9-11.5,5.8-17.2,8.6c-1.4,0-2.9,1.4-4.3,1.4c-4.3,2.9-8.6,4.3-12.9,7.2c-2.9,2.9-4.3,4.3-7.2,5.8
	c-2.9,2.9-7.2,4.3-10.1,7.2c-1.4,1.4-4.3,2.9-5.8,4.3c-2.9,2.9-7.2,5.8-10.1,7.2c-1.4,1.4-4.3,2.9-5.8,4.3c-1.4,1.4-1.4,1.4-2.9,2.9
	l-30.2-30.2C191.2,68.1,260.2,39.3,334.9,35L334.9,35z M33.1,365.6h43.1v5.8c0,4.3,0,7.2,1.4,11.5c0,4.3,1.4,8.6,1.4,14.4
	c0,4.3,1.4,7.2,1.4,11.5c1.4,4.3,1.4,8.6,2.9,12.9c1.4,2.9,1.4,7.2,2.9,10.1c4.3,5.7,5.7,10.1,7.2,14.4c1.4,2.9,2.9,7.2,4.3,10.1
	c1.4,4.3,4.3,8.6,5.8,12.9c1.4,2.9,2.9,5.8,4.3,8.6c2.9,4.3,5.8,8.6,7.2,12.9c1.4,2.9,2.9,5.8,4.3,8.6c2.9,4.3,7.2,10.1,10.1,14.4
	c1.4,2.9,2.9,4.3,4.3,7.2c2.9,4.3,7.2,8.6,11.5,12.9L115,563.9C66.1,509.3,37.4,438.9,33.1,365.6L33.1,365.6z M363.7,667.4v-43.1
	h5.8h7.2c4.3,0,8.6-1.4,14.4-1.4c2.9,0,5.8-1.4,7.2-1.4c4.3-1.4,8.6-1.4,12.9-2.9c2.9,0,5.8-1.4,8.6-1.4c4.3-1.4,7.2-1.4,11.5-2.9
	c2.9-1.4,5.8-1.4,8.6-2.9c4.3-1.4,7.2-2.9,11.5-4.3c2.9-1.4,5.8-2.9,8.6-2.9c4.3-1.4,7.2-2.9,10.1-4.3c2.9-1.4,5.8-2.9,7.2-4.3
	c2.9-1.4,7.2-4.3,10.1-5.8c2.9-1.4,4.3-2.9,7.2-4.3c1.4-1.4,2.9-1.4,4.3-2.9c0,0,1.4,0,1.4,1.4c1.4,1.4,2.9,2.9,4.3,2.9
	c10.1,7.2,20.1,10.1,33.1,10.1h1.4c2.9,0,5.8,0,8.6-1.4h2.9c1.4,0,2.9,0,4.3-1.4C498.8,638.7,434.1,663.1,363.7,667.4L363.7,667.4z
	 M641.1,473.4c-12.9,28.7-28.7,56.1-48.9,80.5c0-1.4,0-2.9,1.4-4.3v-2.9c0-2.9,1.4-7.2,1.4-10.1c0-2.9,0-5.8-1.4-10.1v-2.9
	c0-2.9-1.4-5.8-2.9-8.6c-1.4-2.9-2.9-5.8-4.3-8.6L585,505c-1.4-2.9-2.9-4.3-5.8-7.2c4.3-5.8,7.2-11.5,10.1-18.7
	c1.4-1.4,1.4-2.9,2.9-4.3c2.9-5.8,5.8-12.9,8.6-18.7c2.9-7.2,5.8-15.8,8.6-24.4c1.4-2.9,1.4-5.8,2.9-8.6c1.4-5.8,2.9-11.5,4.3-17.2
	c0-2.9,1.4-5.8,1.4-10.1c1.4-5.8,1.4-10.1,2.9-15.8c0-2.9,0-7.2,1.4-10.1v-7.2h43.1C664.1,403,655.4,440.3,641.1,473.4L641.1,473.4z
	"/>
</svg>
